# OBJ written from C:\Users\KLIMaka\Desktop\cube.obj

o Mesh
v -1 -1 -1
v -1 1 -1
v 1 1 -1
v 1 -1 -1
v -1 -1 1
v -1 1 1
v 1 1 1
v 1 -1 1
vn 0 1 0
vn 0 0 1
vn -1 0 0
vn 0 -1 0
vn 0 0 -1
vn 1 0 0
vt 0.75 0.666667
vt 0.5 0.666667
vt 0.75 0.333333
vt 0.5 0.333333
vt 0.25 1
vt 0.25 0.666667
vt 0.5 1
vt 1 0.666667
vt 1 0.333333
vt 0 0.666667
vt 0.25 0.333333
vt 0 0.333333
vt 0.25 0
vt 0.5 0
mtllib cube.mtl
usemtl Default
g Default
f 6/1/1 7/2/1 2/3/1
f 3/4/1 2/3/1 7/2/1
f 5/5/2 8/6/2 6/7/2
f 7/2/2 6/7/2 8/6/2
f 5/8/3 6/1/3 1/9/3
f 2/3/3 1/9/3 6/1/3
f 8/6/4 5/10/4 4/11/4
f 1/12/4 4/11/4 5/10/4
f 1/13/5 2/14/5 4/11/5
f 3/4/5 4/11/5 2/14/5
f 7/2/6 8/6/6 3/4/6
f 4/11/6 3/4/6 8/6/6
