# OBJ written from C:\Users\KLIMaka\Desktop\tile.obj

o Mesh
v -0.0118398 0.00863277 0.0162107
v -0.00617582 0.00707029 0.01709
v -0.0135 0.00912105 0.0190431
v -0.0149649 0.0095117 0.0249997
v -0.0165274 0.00853513 0.00986302
v -0.0124258 0.00677733 0.00917972
v -0.000902364 0.00570308 0.00576175
v -0.00930078 0.00853513 0.00205052
v -0.00383205 0.00619136 0.000878935
v -0.00285549 0.00628905 0.00888646
v 0.00495701 0.00443356 0.00283206
v -0.000999996 0.0052148 -0.005957
v -0.0088125 0.00531249 -0.00468766
v 0.00339454 0.00404297 -0.0124024
v 0.00241797 0.00443356 -0.00986325
v -2.34335e-005 0.00423824 -0.0104493
v 0.0043711 0.0052148 -0.00693357
v 0.000855497 0.00492184 -0.00273454
v 0.00564056 0.00462888 -0.000293131
v -0.00353903 0.00501953 -0.0106448
v -0.0117422 0.00648438 -0.0101565
v -0.00822658 0.00462888 -0.00742185
v 0.00573831 0.0052148 -0.00693357
v -0.0129141 0.00892578 -0.0234374
v -0.0142812 0.00921874 -0.0234374
v -0.0149649 0.0095117 -0.025
v -0.0148673 0.00941406 -0.0183595
v -0.0159415 0.00941406 -0.0163087
v -0.0115469 0.00853513 -0.0177735
v 0.0190195 3.90289e-005 -0.025
v 0.0190195 3.90289e-005 0.0249997
v -0.00187893 0.00580077 0.0119139
v 0.024 3.90289e-005 0.0249997
v 0.0190195 3.90289e-005 1.23866e-007
v 0.024 3.90289e-005 1.23866e-007
v 0.024 3.90289e-005 -0.025
v 0.00651949 0.00404297 -0.0117186
v -0.0108633 0.00833981 -0.0206054
v -0.026 0.0095117 -0.025
v -0.0255117 0.00999998 -0.0245117
v -0.0255117 0.00999998 0.0245115
v -0.026 0.0095117 0.0249997
v -0.0149649 0.0095117 -0.025
v -0.0160391 0.00999998 -0.0245117
v -0.0160391 0.00999998 0.0245115
v -0.0149649 0.0095117 0.0249997
v -0.0144766 0.00999998 0.0190431
v -0.0135 0.00912105 0.0190431
v -0.0175039 0.00999998 0.009668
v -0.0165274 0.00853513 0.00986302
v -0.0112539 0.00999998 0.000878935
v -0.00930078 0.00853513 0.00205052
v -0.0141836 0.00999998 -0.00830066
v -0.0117422 0.00648438 -0.0101565
v -0.016625 0.00999998 -0.0169924
v -0.0159415 0.00941406 -0.0163087
v -0.0117422 0.00941406 -0.0180663
v -0.0145742 0.00970702 -0.0186523
v -0.010961 0.00941406 -0.0206054
v -0.0129141 0.00921874 -0.0233401
v -0.0141836 0.00941406 -0.0233401
v -0.000609347 0.00531249 -0.0104493
v -0.00148828 0.00619136 -0.00664079
v -0.0034414 0.00628905 -0.0108398
v -0.00734765 0.0059961 -0.0077151
v -0.00842185 0.00648438 -0.00556647
v -0.00334377 0.00707029 0.000878935
v 0.000855497 0.0058984 -0.00224626
v 0.00534766 0.00511717 -0.000195379
v 0.004664 0.00511717 0.00263656
v -0.000609347 0.00667964 0.00537122
v -0.00627346 0.0076562 0.016699
v -0.0113515 0.00970702 0.0157224
v -0.0119376 0.0076562 0.00947249
v -0.00305075 0.0076562 0.00917972
v -0.00217194 0.0076562 0.0119139
v 0.00632422 0.00472652 -0.0117186
v 0.00261324 0.00511717 -0.009961
v 0.00349217 0.00482421 -0.0124024
v 0.00564056 0.00580077 -0.00712907
v 0.0043711 0.00580077 -0.00712907
v -0.0115469 0.00853513 -0.0177735
v -0.0148673 0.00941406 -0.0183595
v -0.0108633 0.00833981 -0.0206054
v -0.0129141 0.00892578 -0.0234374
v -0.00822658 0.00462888 -0.00742185
v -0.00353903 0.00501953 -0.0106448
v -0.0088125 0.00531249 -0.00468766
v -0.000999996 0.0052148 -0.005957
v -2.34335e-005 0.00423824 -0.0104493
v -0.00383205 0.00619136 0.000878935
v -0.000902364 0.00570308 0.00576175
v 0.00495701 0.00443356 0.00283206
v 0.000855497 0.00492184 -0.00273454
v 0.00564056 0.00462888 -0.000293131
v -0.0118398 0.00863277 0.0162107
v -0.0124258 0.00677733 0.00917972
v -0.00617582 0.00707029 0.01709
v -0.00187893 0.00580077 0.0119139
v -0.00285549 0.00628905 0.00888646
v 0.00651949 0.00404297 -0.0117186
v 0.00339454 0.00404297 -0.0124024
v 0.00241797 0.00443356 -0.00986325
v 0.0043711 0.0052148 -0.00693357
vn 0.24471 0.96122 -0.127177
vn 0.219096 0.975037 -0.0360476
vn 0.269517 0.962988 -0.0038567
vn 0.26948 0.963003 0.00219922
vn 0.287899 0.948133 0.134752
vn 0.307336 0.951581 0.00621695
vn 0.286687 0.956008 -0.0621246
vn 0.223009 0.95765 -0.182138
vn 0.387099 0.921824 -0.0198615
vn 0.204419 0.976685 0.0655623
vn 0.195806 0.980488 0.0174232
vn 0.0334603 0.993067 -0.11269
vn 0.40375 0.883858 -0.236182
vn 0.0759678 0.992777 -0.0928554
vn 0.045337 0.997905 -0.0461582
vn -0.035579 0.978069 -0.205218
vn -0.00233074 0.99998 0.00585979
vn 0.0880669 0.995263 0.0411858
vn 0.21736 0.97426 0.0597641
vn 0.164406 0.982207 0.0907776
vn 0.493925 0.85695 -0.147227
vn 0.370571 0.917261 0.145975
vn 0.406096 0.912977 0.039501
vn 0.306017 0.945261 0.113296
vn 0.182851 0.982966 -0.018516
vn 0.24879 0.967922 0.0350684
vn 0.2227 0.974398 0.0308846
vn 0.294864 0.954236 0.0498923
vn 0.215741 0.975228 0.0488538
vn 0.190937 0.973718 0.124161
vn 0.293028 0.923828 0.246324
vn 0.235908 0.939495 0.248386
vn 0.20851 0.977923 0.0137753
vn 0.21381 0.976429 0.029512
vn 0.242823 0.969287 0.0389854
vn 0 1 0
vn 0.131519 0.991314 0
vn 0.193212 0.980521 -0.0353321
vn 0.0618288 0.970197 -0.234295
vn 0.267855 0.963458 0.00154769
vn 0.327991 0.93506 0.134483
vn 0.301836 0.897068 0.322744
vn -0.707107 0.707107 0
vn 0 0.707107 -0.707107
vn 0 0.707107 0.707107
vn 0.203881 0.978803 0.0194471
vn 0.584311 0.81145 -0.0113582
vn 0.729895 0.673749 -0.115393
vn 0.536449 0.836103 0.114694
vn 0.369544 0.925848 0.0790091
vn 0.399118 0.916109 0.0380697
vn 0.11391 0.990183 0.0810028
vn 0.739005 0.619823 -0.263992
vn 0.818342 0.510379 -0.264252
vn 0.405219 0.913442 -0.0376998
vn 0.633133 0.737419 0.235276
vn 0.235977 0.951462 0.197572
vn 0.635072 0.501592 0.587443
vn 0.554373 0.690822 0.464151
vn 0.719538 0.6544 -0.232433
vn 0.744215 0.63119 -0.218501
vn 0.380165 0.92467 -0.0214724
vn 0.710388 0.694132 -0.116314
vn 0.218324 0.975728 0.0170122
vn 0.517748 0.853745 0.0552793
vn 0.0967524 0.994863 0.0297661
vn 0.0637783 0.997463 -0.0316251
vn 0.0932819 0.994934 -0.0374719
vn 0.0913841 0.993274 -0.0710975
vn 0.151892 0.98718 -0.0490348
vn 0.339696 0.930599 -0.136355
vn 0.152843 0.987078 -0.0481282
vn 0.104215 0.988863 -0.106247
vn -0.0169338 0.995918 -0.0886577
vn 0.00745698 0.975909 -0.21805
vn 0.228579 0.972958 -0.0332298
vn 0.2174 0.97596 -0.0155038
vn 0.2084 0.974315 -0.0853263
vn 0.23842 0.971136 -0.00709097
vn 0.250576 0.965667 -0.0685495
vn 0.140236 0.983998 -0.109917
vn 0.211259 0.963302 -0.165585
vn 0.407012 0.855903 -0.319017
vn 0.0171061 0.982388 -0.186069
vn 0.05801 0.993462 -0.0983264
vn 0.0256693 0.985969 -0.164944
vn -0.00340683 0.973355 -0.229278
vn 0 0.973683 -0.227905
vn -0.0599778 0.495069 0.866781
vn 0.05092 0.680034 0.731411
vn -0.166987 0.278006 0.945954
vn 0.938096 0.277472 0.20733
vn 0.95038 0.183067 0.251523
vn 0.952195 0.0866449 0.292945
vn 0.812771 0.128579 -0.568217
vn 0.80906 0.0736202 -0.583098
vn 0.813837 0.183118 -0.551487
vn 0.0484299 0.314757 -0.947936
vn -0.752999 0.649853 -0.103362
vn -0.690462 0.302982 -0.656859
vn -0.67888 0.179078 -0.712077
vn -0.398627 0.0548553 -0.915471
vn -0.598771 0.0606417 -0.798621
vn -0.619705 -0.0723957 -0.781489
vn -0.806985 0.255577 -0.532405
vn -0.888266 0.274662 -0.368163
vn -0.960491 0.139646 -0.24074
vn 0.142121 0.586933 0.797064
vn 0.149872 0.560716 0.814331
vn 0.134222 0.612537 0.778963
vn 0.870809 0.483902 0.0867738
vn 0.867334 0.490956 0.0818194
vn 0.87421 0.476806 0.0917207
vn 0.0631168 0.0344248 -0.997412
vn -0.149988 0.0246988 -0.988379
vn 0.0726077 -0.0618022 -0.995444
vn 0.0814195 -0.157451 -0.984165
vn -0.757304 0.42334 0.497266
vn -0.758037 0.42112 0.498033
vn -0.756567 0.425557 0.496496
vn 0.490069 0.309695 0.814813
vn 0.717449 0.457707 0.525139
vn 0.727571 0.410253 0.549848
vn 0.495771 0.190117 0.847388
vn 0.43503 0.410813 -0.801237
vn 0.437201 0.402208 -0.804416
vn 0.432821 0.419383 -0.797988
vn -0.915015 0.402311 -0.0299009
vn -0.888695 0.454848 -0.0577478
vn -0.858617 0.505462 -0.0853504
vn 0.0222048 0.494305 0.869005
vn 0.0682512 0.56164 0.824562
vn -0.0240331 0.422705 0.905949
vn 0.75812 0.292566 0.582803
vn 0.753854 0.119051 0.646166
vn 0.736503 0.456092 0.499542
vn 0.942296 0.170969 -0.287833
vn 0.941451 0.148677 -0.302598
vn 0.942467 0.193138 -0.272862
vn -0.0125603 0.322303 -0.946553
vn -0.0224358 0.26426 -0.96419
vn -0.0322265 0.205219 -0.978185
vn 0.21336 0.0609492 -0.975071
vn 0.223743 0.0158919 -0.974519
vn 0.233649 -0.0291994 -0.971883
vn -0.921085 0.115109 -0.371957
vn -0.91744 0.16268 -0.363096
vn -0.911635 0.209868 -0.353381
vn -0.842686 0.23856 0.48267
vn -0.840527 0.304193 0.448308
vn -0.840215 0.171617 0.51438
vn 0 0.316488 0.948596
vn 0.958555 0.273825 0.0786945
vn -0.49413 0.388802 -0.777604
vn -0.507125 0.338957 -0.792422
vn -0.518662 0.288138 -0.804964
vn 0.864958 0.454609 0.212551
vn 0.856719 0.472501 0.206823
vn 0.776501 0.469317 0.42046
vt 0.152746 0.732132
vt 0.106758 0.760474
vt 0.139025 0.636747
vt 0.01 0.784966
vt 0.268059 0.735691
vt 0.258611 0.806542
vt 0.324451 0.547875
vt 0.405865 0.595504
vt 0.386984 0.692815
vt 0.273244 0.581593
vt 0.371334 0.449104
vt 0.515284 0.544715
vt 0.500863 0.665796
vt 0.618268 0.471699
vt 0.587892 0.526791
vt 0.577567 0.488824
vt 0.528794 0.460057
vt 0.462613 0.515715
vt 0.422144 0.438302
vt 0.592024 0.584087
vt 0.585448 0.717613
vt 0.542039 0.655864
vt 0.528418 0.439116
vt 0.803405 0.743051
vt 0.82914 0.776812
vt 0.803714 0.765341
vt 0.721887 0.776336
vt 0.68871 0.793703
vt 0.712378 0.721946
vt 0.817473 0.211214
vt 0.0107111 0.210977
vt 0.223693 0.56409
vt 0.0106385 0.13
vt 0.416515 0.13
vt 0.416478 0.21037
vt 0.817729 0.131285
vt 0.605882 0.422461
vt 0.757403 0.709694
vt 0.824832 0.99468
vt 0.017774 0.984103
vt 0.816325 0.984084
vt 0.00934032 0.99468
vt 0.817901 0.834428
vt 0.828458 0.816867
vt 0.005 0.817504
vt 0.015899 0.834899
vt 0.103753 0.809308
vt 0.10368 0.788596
vt 0.258546 0.854028
vt 0.252489 0.826325
vt 0.402779 0.755235
vt 0.383438 0.716797
vt 0.552312 0.801876
vt 0.589846 0.736115
vt 0.694547 0.840834
vt 0.684111 0.825645
vt 0.879584 0.570778
vt 0.919333 0.565986
vt 0.876439 0.618142
vt 0.960361 0.602605
vt 0.956652 0.624755
vt 0.897353 0.519733
vt 0.880253 0.475893
vt 0.952833 0.482015
vt 0.903889 0.396089
vt 0.931067 0.369447
vt 0.969858 0.301501
vt 0.907236 0.161665
vt 0.977078 0.212539
vt 0.873006 0.198583
vt 0.888224 0.299152
vt 0.845175 0.887645
vt 0.97145 0.97829
vt 0.865945 0.975204
vt 0.965237 0.826429
vt 0.922739 0.814769
vt 0.869495 0.749215
vt 0.872156 0.703371
vt 0.9135 0.695791
vt 0.953273 0.736605
vt 0.94935 0.757725
vt 0.869501 0.560012
vt 0.869501 0.623553
vt 0.925077 0.549614
vt 0.965019 0.599556
vt 0.965757 0.602718
vt 0.888213 0.369247
vt 0.860779 0.474985
vt 0.947494 0.352169
vt 0.972949 0.489511
vt 0.896815 0.542951
vt 0.979629 0.313195
vt 0.87735 0.310516
vt 0.860543 0.193584
vt 0.992435 0.202159
vt 0.905515 0.150891
vt 0.855832 0.988691
vt 0.984827 0.990326
vt 0.833557 0.883224
vt 0.913808 0.783412
vt 0.984827 0.8158
vt 0.861548 0.757725
vt 0.863446 0.696316
vt 0.917156 0.683417
vt 0.962054 0.731766
mtllib tile.mtl
usemtl Standardmaterial
g Default
f 1/1/1 3/2/2 2/3/3
f 2/3/3 3/2/2 4/4/4
f 1/1/1 6/5/5 5/6/6
f 1/1/1 5/6/6 3/2/2
f 7/7/7 9/8/8 8/9/9
f 6/5/5 8/9/9 5/6/6
f 6/5/5 10/10/10 8/9/9
f 7/7/7 8/9/9 10/10/10
f 7/7/7 10/10/10 11/11/11
f 12/12/12 13/13/13 9/8/8
f 13/13/13 8/9/9 9/8/8
f 14/14/14 16/15/15 15/16/16
f 16/15/15 12/12/12 15/16/16
f 15/16/16 12/12/12 17/17/17
f 12/12/12 9/8/8 18/18/18
f 17/17/17 12/12/12 18/18/18
f 17/17/17 18/18/18 19/19/19
f 14/14/14 20/20/20 16/15/15
f 13/13/13 21/21/21 8/9/9
f 22/22/22 21/21/23 13/13/13
f 22/22/22 20/20/20 21/21/24
f 17/17/17 19/19/19 23/23/25
f 24/24/26 26/25/27 25/26/28
f 27/27/29 25/26/28 26/25/27
f 28/28/30 27/27/29 26/25/27
f 29/29/31 27/27/29 28/28/32
f 30/30/33 28/28/32 21/21/24
f 31/31/34 2/3/3 4/4/4
f 31/31/34 32/32/35 2/3/3
f 31/31/34 10/10/10 32/32/35
f 33/33/36 35/34/36 34/35/37
f 33/33/36 34/35/37 31/31/34
f 31/31/34 34/35/37 19/19/19
f 31/31/34 11/11/11 10/10/10
f 31/31/34 19/19/19 11/11/11
f 35/34/36 36/36/36 30/30/38
f 34/35/37 35/34/36 30/30/38
f 34/35/37 30/30/33 19/19/19
f 30/30/33 23/23/25 19/19/19
f 30/30/38 37/37/39 23/23/25
f 30/30/38 14/14/14 37/37/39
f 30/30/38 20/20/20 14/14/14
f 30/30/38 21/21/23 20/20/20
f 30/30/33 26/25/27 24/24/26
f 30/30/33 24/24/26 38/38/40
f 30/30/41 29/29/31 28/28/42
f 30/30/33 38/38/40 29/29/31
f 39/39/43 41/40/43 40/41/43
f 42/42/43 41/40/43 39/39/43
f 39/39/44 44/43/44 43/44/44
f 39/39/44 40/41/44 44/43/44
f 42/42/45 46/45/45 45/46/45
f 42/42/45 45/46/45 41/40/45
f 41/40/36 45/46/46 47/47/36
f 48/48/47 47/47/48 45/46/49
f 48/48/47 45/46/50 46/45/51
f 41/40/36 47/47/36 49/49/52
f 50/50/53 49/49/54 47/47/48
f 48/48/47 50/50/53 47/47/48
f 41/40/36 49/49/52 40/41/36
f 40/41/36 49/49/52 51/51/55
f 52/52/56 51/51/55 49/49/57
f 50/50/58 52/52/56 49/49/59
f 40/41/36 51/51/55 53/53/36
f 54/54/60 53/53/61 51/51/55
f 54/54/60 51/51/55 52/52/56
f 40/41/36 53/53/36 55/55/62
f 56/56/63 55/55/62 53/53/61
f 54/54/60 56/56/63 53/53/61
f 40/41/36 55/55/62 44/43/64
f 56/56/63 43/44/65 55/55/62
f 43/44/65 44/43/64 55/55/62
f 57/57/66 59/58/67 58/59/68
f 60/60/69 61/61/70 58/59/68
f 60/60/69 58/59/68 59/58/67
f 62/62/71 64/63/72 63/64/73
f 65/65/74 63/64/73 64/63/72
f 65/65/74 66/66/75 63/64/73
f 67/67/76 69/68/77 68/69/78
f 70/70/79 69/68/77 67/67/76
f 71/71/80 70/70/79 67/67/76
f 72/72/81 74/73/82 73/74/83
f 72/72/81 75/75/36 74/73/82
f 72/72/81 76/76/36 75/75/36
f 77/77/84 79/78/85 78/79/86
f 77/77/84 81/80/87 80/81/88
f 77/77/84 78/79/86 81/80/87
f 82/82/89 58/59/89 83/83/90
f 82/82/89 57/57/91 58/59/89
f 82/82/92 84/84/93 57/57/93
f 84/84/93 59/58/94 57/57/93
f 84/84/95 60/60/95 59/58/96
f 84/84/95 85/85/97 60/60/95
f 85/86/36 61/61/36 61/61/36
f 85/86/98 61/61/98 60/60/98
f 61/61/36 58/59/36 61/61/36
f 83/83/99 58/59/99 61/61/99
f 86/87/100 65/65/101 87/88/102
f 87/88/103 65/65/101 64/63/104
f 86/87/105 66/66/106 65/65/101
f 86/87/106 88/89/107 66/66/106
f 88/89/108 63/64/108 66/66/109
f 89/90/110 63/64/108 88/89/108
f 90/91/111 63/64/111 89/90/112
f 90/91/111 62/62/113 63/64/111
f 90/91/114 87/88/115 62/62/116
f 87/88/116 64/63/117 62/62/116
f 91/92/118 71/71/118 67/67/119
f 92/93/120 71/71/118 91/92/118
f 92/93/121 93/94/122 70/70/123
f 92/93/121 70/70/121 71/71/124
f 94/95/125 68/69/126 69/68/125
f 94/95/125 69/68/125 95/96/127
f 96/97/128 73/74/129 97/98/129
f 97/98/129 73/74/129 74/73/130
f 98/99/131 72/72/132 73/74/131
f 96/97/133 98/99/131 73/74/131
f 99/100/134 76/76/135 72/72/134
f 98/99/136 99/100/134 72/72/134
f 99/100/137 75/75/137 76/76/138
f 99/100/137 100/101/139 75/75/137
f 97/98/140 74/73/141 100/101/141
f 100/101/141 74/73/141 75/75/142
f 101/102/143 102/103/144 77/77/144
f 102/103/144 79/78/145 77/77/144
f 102/103/146 103/104/147 79/78/147
f 103/104/147 78/79/148 79/78/147
f 103/104/149 81/80/149 78/79/150
f 103/104/149 104/105/151 81/80/149
f 104/105/152 80/81/152 81/80/152
f 104/105/36 80/81/36 80/81/36
f 101/102/153 77/77/153 80/81/153
f 77/77/36 80/81/36 80/81/36
f 94/95/154 91/92/155 68/69/155
f 91/92/155 67/67/156 68/69/155
f 95/96/157 69/68/158 70/70/159
f 93/94/122 95/96/157 70/70/159
