# OBJ written from D:\my_doc\workspace_js\nodejs_proj\files\models\disk.obj

o Mesh
v 0 0 -0.5
v -0.191342 0 -0.46194
v -0.353553 0 -0.353553
v -0.46194 0 -0.191342
v -0.5 0 0
v -0.46194 0 0.191342
v -0.353553 0 0.353553
v -0.191342 0 0.46194
v 0 0 0.5
v 0.191342 0 0.46194
v 0.353553 0 0.353553
v 0.46194 0 0.191342
v 0.5 0 0
v 0.46194 0 -0.191342
v 0.353553 0 -0.353553
v 0.191342 0 -0.46194
vn 0 1 0
vt 0.990393 0.597545
vt 0.915735 0.777785
vt 0.777785 0.915735
vt 0.597545 0.990393
vt 0.402455 0.990393
vt 0.222215 0.915735
vt 0.0842652 0.777785
vt 0.00960735 0.597545
vt 0.00960737 0.402455
vt 0.0842652 0.222215
vt 0.222215 0.0842652
vt 0.402455 0.00960735
vt 0.597545 0.00960737
vt 0.777785 0.0842652
vt 0.915735 0.222215
vt 0.990393 0.402455
mtllib disk.mtl
usemtl Default
g Default
f 1/1/1 2/2/1 3/3/1 4/4/1 5/5/1 6/6/1 7/7/1 8/8/1 9/9/1 10/10/1 11/11/1 12/12/1 13/13/1 14/14/1 15/15/1 16/16/1
