# OBJ written from C:\Users\KLIMaka\Desktop\pivot.obj

o Mesh
v 0 -0.05 0
v 0 -0.046194 -0.0191342
v -0.0135299 -0.046194 -0.0135299
v -0.0191342 -0.046194 0
v -0.0135299 -0.046194 0.0135299
v 0 -0.046194 0.0191342
v 0.0135299 -0.046194 0.0135299
v 0.0191342 -0.046194 0
v 0.0135299 -0.046194 -0.0135299
v 0 -0.0353553 -0.0353553
v -0.025 -0.0353553 -0.025
v -0.0353553 -0.0353553 0
v -0.025 -0.0353553 0.025
v 0 -0.0353553 0.0353553
v 0.025 -0.0353553 0.025
v 0.0353553 -0.0353553 0
v 0.025 -0.0353553 -0.025
v 0 -0.0191342 -0.046194
v -0.0326641 -0.0191342 -0.0326641
v -0.046194 -0.0191342 0
v -0.0326641 -0.0191342 0.0326641
v 0 -0.0191342 0.046194
v 0.0326641 -0.0191342 0.0326641
v 0.046194 -0.0191342 0
v 0.0326641 -0.0191342 -0.0326641
v 0 -3.06162e-018 -0.05
v -0.0353553 -3.06162e-018 -0.0353553
v -0.05 -3.06162e-018 0
v -0.0353553 -3.06162e-018 0.0353553
v 0 -3.06162e-018 0.05
v 0.0353553 -3.06162e-018 0.0353553
v 0.05 -3.06162e-018 0
v 0.0353553 -3.06162e-018 -0.0353553
v 0 0.0191342 -0.046194
v -0.0326641 0.0191342 -0.0326641
v -0.046194 0.0191342 0
v -0.0326641 0.0191342 0.0326641
v 0 0.0191342 0.046194
v 0.0326641 0.0191342 0.0326641
v 0.046194 0.0191342 0
v 0.0326641 0.0191342 -0.0326641
v 0 0.0353553 -0.0353553
v -0.025 0.0353553 -0.025
v -0.0353553 0.0353553 0
v -0.025 0.0353553 0.025
v 0 0.0353553 0.0353553
v 0.025 0.0353553 0.025
v 0.0353553 0.0353553 0
v 0.025 0.0353553 -0.025
v 0 0.046194 -0.0191342
v -0.0135299 0.046194 -0.0135299
v -0.0191342 0.046194 0
v -0.0135299 0.046194 0.0135299
v 0 0.046194 0.0191342
v 0.0135299 0.046194 0.0135299
v 0.0191342 0.046194 0
v 0.0135299 0.046194 -0.0135299
v 0 0.05 6.12323e-018
v -0.0102 0 -0.0296
v -0.00727108 0.00707106 -0.0296
v -0.000200005 0.00999999 -0.0296
v 0.00687107 0.00707106 -0.0296
v 0.00979999 0 -0.0296
v 0.00687107 -0.00707106 -0.0296
v -0.000200005 -0.00999999 -0.0296
v -0.00727108 -0.00707106 -0.0296
v -0.0102 0 -0.3496
v -0.00727108 0.00707106 -0.3496
v -0.000200005 0.00999999 -0.3496
v 0.00687107 0.00707106 -0.3496
v 0.00979999 0 -0.3496
v 0.00687107 -0.00707106 -0.3496
v -0.000200005 -0.00999999 -0.3496
v -0.00727108 -0.00707106 -0.3496
v 0 0.029 -0.01
v -0.00707107 0.029 -0.00707107
v -0.01 0.029 0
v -0.00707107 0.029 0.00707107
v 0 0.029 0.01
v 0.00707107 0.029 0.00707107
v 0.01 0.029 0
v 0.00707107 0.029 -0.00707107
v 0 0.349 -0.01
v -0.00707107 0.349 -0.00707107
v -0.01 0.349 0
v -0.00707107 0.349 0.00707107
v 0 0.349 0.01
v 0.00707107 0.349 0.00707107
v 0.01 0.349 0
v 0.00707107 0.349 -0.00707107
v 0.02 0 -0.01
v 0.02 0.00707106 -0.00707107
v 0.02 0.00999999 0
v 0.02 0.00707106 0.00707107
v 0.02 0 0.01
v 0.02 -0.00707106 0.00707107
v 0.02 -0.00999999 0
v 0.02 -0.00707106 -0.00707107
v 0.34 0 -0.01
v 0.34 0.00707106 -0.00707107
v 0.34 0.00999999 0
v 0.34 0.00707106 0.00707107
v 0.34 0 0.01
v 0.34 -0.00707106 0.00707107
v 0.34 -0.00999999 0
v 0.34 -0.00707106 -0.00707107
vn 0 -0.924735 -0.380611
vn 0 -1 0
vn -0.269133 -0.924735 -0.269133
vn -0.380611 -0.924735 0
vn -0.269133 -0.924735 0.269133
vn 0 -0.924735 0.380611
vn 0.269133 -0.924735 0.269133
vn 0.380611 -0.924735 0
vn 0.269133 -0.924735 -0.269133
vn 0 -0.70923 -0.704977
vn -0.498494 -0.70923 -0.498494
vn -0.704977 -0.70923 0
vn -0.498494 -0.70923 0.498494
vn 0 -0.70923 0.704977
vn 0.498494 -0.70923 0.498494
vn 0.704977 -0.70923 0
vn 0.498494 -0.70923 -0.498494
vn 0 -0.384551 -0.923104
vn -0.652733 -0.384551 -0.652733
vn -0.923104 -0.384551 0
vn -0.652733 -0.384551 0.652733
vn 0 -0.384551 0.923104
vn 0.652733 -0.384551 0.652733
vn 0.923104 -0.384551 0
vn 0.652733 -0.384551 -0.652733
vn 0 0 -1
vn -0.707107 0 -0.707107
vn -1 0 0
vn -0.707107 0 0.707107
vn 0 0 1
vn 0.707107 0 0.707107
vn 1 0 0
vn 0.707107 0 -0.707107
vn 0 0.384551 -0.923104
vn -0.652733 0.384551 -0.652733
vn -0.923104 0.384551 0
vn -0.652733 0.384551 0.652733
vn 0 0.384551 0.923104
vn 0.652733 0.384551 0.652733
vn 0.923104 0.384551 0
vn 0.652733 0.384551 -0.652733
vn 0 0.70923 -0.704977
vn -0.498494 0.70923 -0.498494
vn -0.704977 0.70923 0
vn -0.498494 0.70923 0.498494
vn 0 0.70923 0.704977
vn 0.498494 0.70923 0.498494
vn 0.704977 0.70923 0
vn 0.498494 0.70923 -0.498494
vn 0 0.924735 -0.380611
vn -0.269133 0.924735 -0.269133
vn -0.380611 0.924735 0
vn -0.269133 0.924735 0.269133
vn 0 0.924735 0.380611
vn 0.269133 0.924735 0.269133
vn 0.380611 0.924735 0
vn 0.269133 0.924735 -0.269133
vn 0 1 0
vn -0.678599 0 -0.734509
vn -0.707107 0.707106 0
vn -0.621876 0.621875 -0.475963
vn 0 0.524428 -0.851455
vn 0.707107 0.707106 0
vn 0.370827 0.370826 -0.851455
vn 0.678599 0 -0.734509
vn 0.707107 -0.707106 0
vn 0.621876 -0.621875 -0.475963
vn 0 -0.524428 -0.851455
vn -0.707107 -0.707106 0
vn -0.370826 -0.370826 -0.851455
vn 0 0.475963 -0.879465
vn -0.370826 0.851455 -0.370826
vn -0.524428 0.851455 0
vn -0.479842 0.73451 0.479842
vn 0 0.475963 0.879465
vn 0.370826 0.851455 0.370826
vn 0.524428 0.851455 0
vn 0.479842 0.73451 -0.479842
vn 0.475963 0 -0.879465
vn 0 0.707107 -0.707107
vn 0.851455 0.370827 -0.370826
vn 0.851455 0.524428 0
vn 0 0.707107 0.707107
vn 0.73451 0.479842 0.479841
vn 0.475963 0 0.879465
vn 0 -0.707107 0.707107
vn 0.851455 -0.370827 0.370826
vn 0.851455 -0.524428 0
vn 0 -0.707107 -0.707107
vn 0.73451 -0.479842 -0.479841
vt 0 0.125
vt 0.0625 0
vt 0.125 0.125
vt 0.1875 0
vt 0.25 0.125
vt 0.3125 0
vt 0.375 0.125
vt 0.4375 0
vt 0.5 0.125
vt 0.5625 0
vt 0.625 0.125
vt 0.6875 0
vt 0.75 0.125
vt 0.8125 0
vt 0.875 0.125
vt 0.9375 0
vt 1 0.125
vt 0 0.25
vt 0.125 0.25
vt 0.25 0.25
vt 0.375 0.25
vt 0.5 0.25
vt 0.625 0.25
vt 0.75 0.25
vt 0.875 0.25
vt 1 0.25
vt 0 0.375
vt 0.125 0.375
vt 0.25 0.375
vt 0.375 0.375
vt 0.5 0.375
vt 0.625 0.375
vt 0.75 0.375
vt 0.875 0.375
vt 1 0.375
vt 0 0.5
vt 0.125 0.5
vt 0.25 0.5
vt 0.375 0.5
vt 0.5 0.5
vt 0.625 0.5
vt 0.75 0.5
vt 0.875 0.5
vt 1 0.5
vt 0 0.625
vt 0.125 0.625
vt 0.25 0.625
vt 0.375 0.625
vt 0.5 0.625
vt 0.625 0.625
vt 0.75 0.625
vt 0.875 0.625
vt 1 0.625
vt 0 0.75
vt 0.125 0.75
vt 0.25 0.75
vt 0.375 0.75
vt 0.5 0.75
vt 0.625 0.75
vt 0.75 0.75
vt 0.875 0.75
vt 1 0.75
vt 0 0.875
vt 0.125 0.875
vt 0.25 0.875
vt 0.375 0.875
vt 0.5 0.875
vt 0.625 0.875
vt 0.75 0.875
vt 0.875 0.875
vt 1 0.875
vt 0.0625 1
vt 0.1875 1
vt 0.3125 1
vt 0.4375 1
vt 0.5625 1
vt 0.6875 1
vt 0.8125 1
vt 0.9375 1
vt 0 0
vt 0.125 0
vt 0.25 0
vt 0.375 0
vt 0.5 0
vt 0.625 0
vt 0.75 0
vt 0.875 0
vt 1 0
vt 0.48097 0.845671
vt 0.345671 0.98097
vt 0.48097 0.654329
vt 0.345671 0.51903
vt 0.154329 0.98097
vt 0.154329 0.51903
vt 0.0190301 0.845671
vt 0.0190301 0.654329
mtllib pivot.mtl
usemtl Default
g Default
f 2/1/1 1/2/2 3/3/3
f 3/3/3 1/4/2 4/5/4
f 4/5/4 1/6/2 5/7/5
f 5/7/5 1/8/2 6/9/6
f 6/9/6 1/10/2 7/11/7
f 7/11/7 1/12/2 8/13/8
f 8/13/8 1/14/2 9/15/9
f 9/15/9 1/16/2 2/17/1
f 10/18/10 2/1/1 3/3/3 11/19/11
f 11/19/11 3/3/3 4/5/4 12/20/12
f 12/20/12 4/5/4 5/7/5 13/21/13
f 13/21/13 5/7/5 6/9/6 14/22/14
f 14/22/14 6/9/6 7/11/7 15/23/15
f 15/23/15 7/11/7 8/13/8 16/24/16
f 16/24/16 8/13/8 9/15/9 17/25/17
f 17/25/17 9/15/9 2/17/1 10/26/10
f 18/27/18 10/18/10 11/19/11 19/28/19
f 19/28/19 11/19/11 12/20/12 20/29/20
f 20/29/20 12/20/12 13/21/13 21/30/21
f 21/30/21 13/21/13 14/22/14 22/31/22
f 22/31/22 14/22/14 15/23/15 23/32/23
f 23/32/23 15/23/15 16/24/16 24/33/24
f 24/33/24 16/24/16 17/25/17 25/34/25
f 25/34/25 17/25/17 10/26/10 18/35/18
f 26/36/26 18/27/18 19/28/19 27/37/27
f 27/37/27 19/28/19 20/29/20 28/38/28
f 28/38/28 20/29/20 21/30/21 29/39/29
f 29/39/29 21/30/21 22/31/22 30/40/30
f 30/40/30 22/31/22 23/32/23 31/41/31
f 31/41/31 23/32/23 24/33/24 32/42/32
f 32/42/32 24/33/24 25/34/25 33/43/33
f 33/43/33 25/34/25 18/35/18 26/44/26
f 34/45/34 26/36/26 27/37/27 35/46/35
f 35/46/35 27/37/27 28/38/28 36/47/36
f 36/47/36 28/38/28 29/39/29 37/48/37
f 37/48/37 29/39/29 30/40/30 38/49/38
f 38/49/38 30/40/30 31/41/31 39/50/39
f 39/50/39 31/41/31 32/42/32 40/51/40
f 40/51/40 32/42/32 33/43/33 41/52/41
f 41/52/41 33/43/33 26/44/26 34/53/34
f 42/54/42 34/45/34 35/46/35 43/55/43
f 43/55/43 35/46/35 36/47/36 44/56/44
f 44/56/44 36/47/36 37/48/37 45/57/45
f 45/57/45 37/48/37 38/49/38 46/58/46
f 46/58/46 38/49/38 39/50/39 47/59/47
f 47/59/47 39/50/39 40/51/40 48/60/48
f 48/60/48 40/51/40 41/52/41 49/61/49
f 49/61/49 41/52/41 34/53/34 42/62/42
f 50/63/50 42/54/42 43/55/43 51/64/51
f 51/64/51 43/55/43 44/56/44 52/65/52
f 52/65/52 44/56/44 45/57/45 53/66/53
f 53/66/53 45/57/45 46/58/46 54/67/54
f 54/67/54 46/58/46 47/59/47 55/68/55
f 55/68/55 47/59/47 48/60/48 56/69/56
f 56/69/56 48/60/48 49/61/49 57/70/57
f 57/70/57 49/61/49 42/62/42 50/71/50
f 50/63/50 51/64/51 58/72/58
f 51/64/51 52/65/52 58/73/58
f 52/65/52 53/66/53 58/74/58
f 53/66/53 54/67/54 58/75/58
f 54/67/54 55/68/55 58/76/58
f 55/68/55 56/69/56 58/77/58
f 56/69/56 57/70/57 58/78/58
f 57/70/57 50/71/50 58/79/58
f 67/36/59 59/80/28 60/81/60 68/37/61
f 68/37/61 60/81/60 61/82/58 69/38/62
f 69/38/62 61/82/58 62/83/63 70/39/64
f 70/39/64 62/83/63 63/84/32 71/40/65
f 71/40/65 63/84/32 64/85/66 72/41/67
f 72/41/67 64/85/66 65/86/2 73/42/68
f 73/42/68 65/86/2 66/87/69 74/43/70
f 74/43/70 66/87/69 59/88/28 67/44/59
f 83/36/71 75/80/26 76/81/27 84/37/72
f 84/37/72 76/81/27 77/82/28 85/38/73
f 85/38/73 77/82/28 78/83/29 86/39/74
f 86/39/74 78/83/29 79/84/30 87/40/75
f 87/40/75 79/84/30 80/85/31 88/41/76
f 88/41/76 80/85/31 81/86/32 89/42/77
f 89/42/77 81/86/32 82/87/33 90/43/78
f 90/43/78 82/87/33 75/88/26 83/44/71
f 99/36/79 91/80/26 92/81/80 100/37/81
f 100/37/81 92/81/80 93/82/58 101/38/82
f 101/38/82 93/82/58 94/83/83 102/39/84
f 102/39/84 94/83/83 95/84/30 103/40/85
f 103/40/85 95/84/30 96/85/86 104/41/87
f 104/41/87 96/85/86 97/86/2 105/42/88
f 105/42/88 97/86/2 98/87/89 106/43/90
f 106/43/90 98/87/89 91/88/26 99/44/79
f 83/89/58 84/90/58 90/91/58
f 89/92/58 90/91/58 84/90/58
f 84/90/58 85/93/58 89/92/58
f 88/94/58 89/92/58 85/93/58
f 85/93/58 86/95/58 88/94/58
f 87/96/58 88/94/58 86/95/58
f 68/90/26 69/93/26 67/89/26
f 74/91/26 67/89/26 69/93/26
f 69/93/26 70/95/26 74/91/26
f 73/92/26 74/91/26 70/95/26
f 70/95/26 71/96/26 73/92/26
f 72/94/26 73/92/26 71/96/26
f 99/89/32 100/90/32 106/91/32
f 105/92/32 106/91/32 100/90/32
f 100/90/32 101/93/32 105/92/32
f 104/94/32 105/92/32 101/93/32
f 101/93/32 102/95/32 104/94/32
f 103/96/32 104/94/32 102/95/32
